<svg width="90" height="12" viewBox="0 0 90 12" fill="none" xmlns="http://www.w3.org/2000/svg">
<g clip-path="url(#clip0)">
<path d="M60.7896 5.66303C60.7921 8.95477 58.4433 11.251 55.0741 11.246C51.7798 11.241 49.4661 8.96227 49.4536 5.70806C49.4411 2.41632 51.7998 0.0275574 55.0891 4.28885e-05C58.3233 -0.0274716 60.7846 2.41882 60.7896 5.66303ZM58.756 5.63802C58.7435 3.56192 57.2002 2.02361 55.1191 2.0111C52.9955 1.9986 51.4597 3.58444 51.4897 5.75558C51.5197 7.84919 53.063 9.33747 55.1716 9.30496C57.2677 9.26994 58.7685 7.73413 58.756 5.63802Z" fill="#535B6C"/>
<path d="M10.9983 5.62563C10.9983 4.29242 11.0158 2.96172 10.9908 1.62852C10.9758 0.790575 11.3485 0.385361 12.1764 0.390364C13.5922 0.400369 15.0104 0.357847 16.4237 0.442892C17.9345 0.532939 19 1.46093 19.4077 2.86917C19.8079 4.2499 19.4052 5.66815 18.2046 6.5261C17.6318 6.93632 17.6093 7.17645 18.0545 7.6492C18.5098 8.13195 18.9 8.67474 19.3302 9.1825C19.8204 9.76281 20.0506 10.4031 19.3327 10.9009C18.6598 11.3662 18.0845 11.0235 17.6518 10.3856C17.069 9.52519 16.4662 8.67724 15.8609 7.83179C15.5307 7.37155 13.6972 7.02136 13.242 7.30902C12.9768 7.4766 13.0494 7.74425 13.0444 7.98187C13.0344 8.64722 13.0369 9.31507 13.0369 9.98043C13.0369 10.7008 12.6667 11.066 11.9588 11.051C11.2884 11.0385 11.0008 10.6333 10.9983 9.99543C10.9983 8.53967 11.0008 7.0814 10.9983 5.62563ZM14.5752 5.47305C15.268 5.47305 15.7733 5.52057 16.2636 5.46054C16.8939 5.3855 17.3316 4.9978 17.4892 4.38247C17.6468 3.75714 17.6118 3.14182 17.099 2.65406C16.7688 2.34139 13.5897 2.04124 13.2245 2.29137C13.1594 2.33639 13.0669 2.41143 13.0669 2.47396C13.0669 3.42196 12.9093 4.42249 13.1619 5.30046C13.2995 5.77571 14.2175 5.393 14.5752 5.47305Z" fill="#535B6C"/>
<path d="M81.6531 10.0076C81.6181 10.5054 81.3905 10.8631 80.8902 11.0157C80.3799 11.1708 79.8922 11.0382 79.7546 10.5404C79.3744 9.15219 79.6431 9.11718 78.5 9.20472C77.7571 9.26225 75.0763 9.20472 73.8556 9.20472C72.7775 9.10717 73.0636 9.23224 72.6809 10.4704C72.4858 11.1057 71.8354 11.2658 71.2251 10.9807C70.6173 10.698 70.5523 10.1002 70.8074 9.58992C72.2757 6.66088 73.754 3.73684 75.3073 0.852815C75.7525 0.0248778 76.6655 0.042387 77.0982 0.870324C78.619 3.77186 80.0598 6.71341 81.5305 9.63995C81.5906 9.75501 81.6131 9.88008 81.6531 10.0076ZM76.2052 3.36914C75.8951 3.97946 75.4899 4.79239 75.4899 4.79239C75.4899 4.79239 74.2242 6.39324 74.6644 6.96854C75.1122 7.55385 77.1532 7.16364 77.1532 7.16364C77.1532 7.16364 77.8661 6.93602 77.611 6.41075C77.1582 5.48276 76.2052 3.36914 76.2052 3.36914Z" fill="#5B6376"/>
<path d="M62.5105 5.62545C62.5105 4.33477 62.523 3.04409 62.5055 1.75591C62.493 0.735371 62.9032 0.200089 63.9938 0.24011C65.1169 0.282632 66.245 0.215097 67.3655 0.262622C69.4742 0.352669 70.9049 1.83845 70.9874 3.96207C71.07 6.08069 69.7518 7.67654 67.6757 7.95418C67.3881 7.9917 67.0929 7.9792 66.8028 7.9917C66.1024 8.02172 65.2519 7.82411 64.7442 8.15179C64.2239 8.48696 64.6116 9.38744 64.5466 10.0378C64.484 10.6731 64.2189 11.0708 63.5385 11.0358C62.8957 11.0033 62.533 10.6206 62.523 9.99526C62.498 8.53949 62.5155 7.08122 62.5155 5.62545C62.513 5.62545 62.5105 5.62545 62.5105 5.62545ZM64.5466 4.16968C64.5716 6.2783 64.3114 6.00065 65.9848 6.01816C68.0734 6.04067 69.0014 5.44036 68.9964 4.12716C68.9914 2.81147 68.0934 2.19614 66.1299 2.21615C64.2539 2.23366 64.5816 1.94351 64.5466 4.16968Z" fill="#5B6376"/>
<path d="M30.7237 5.57793C30.7212 4.24972 30.7312 2.92152 30.7187 1.59082C30.7112 0.662832 31.1264 0.215096 32.0769 0.240109C33.1975 0.267624 34.3206 0.220099 35.4412 0.255117C37.6524 0.325154 39.1357 1.86597 39.1757 4.09214C39.2132 6.21326 37.7624 7.79159 35.6088 7.97169C35.4837 7.98169 35.3587 7.9842 35.2361 7.9867C34.4882 7.9917 33.6003 7.74657 33.0299 8.06674C32.3546 8.44694 32.8724 9.41995 32.7523 10.1228C32.6548 10.6881 32.3871 11.0558 31.7843 11.0433C31.0814 11.0283 30.7262 10.6356 30.7262 9.93523C30.7212 8.48446 30.7237 7.03119 30.7237 5.57793ZM32.7573 4.12716C32.9124 4.90507 32.1245 6.20826 34.058 6.06318C36.2642 5.89559 37.2297 5.44285 37.2022 4.10215C37.1746 2.78895 36.2817 2.20865 34.2756 2.20865C32.7573 2.20865 32.7573 2.20865 32.7573 4.12716Z" fill="#535B6C"/>
<path d="M4.48629e-06 5.21793C0.0800467 3.49202 0.790422 1.64104 2.87902 0.665528C4.82005 -0.23995 6.74606 -0.164911 8.54451 1.12327C9.13482 1.54599 9.60507 2.07877 9.12482 2.78665C8.62956 3.51703 8.01674 3.23688 7.40641 2.78915C5.97066 1.73359 4.01712 1.88117 2.86402 3.0843C1.6984 4.29994 1.60335 6.66119 2.66641 8.05192C3.67694 9.37762 5.63048 9.7153 7.16629 8.80732C7.90167 8.37209 8.73461 7.55166 9.33993 8.75479C9.88772 9.84287 8.82216 10.3006 8.07427 10.6733C4.17471 12.6043 -0.00499815 9.99795 4.48629e-06 5.21793Z" fill="#535B6C"/>
<path d="M24.8681 4.83992C25.7361 3.56675 26.569 2.38613 27.3595 1.17549C27.8047 0.492627 28.3675 0.084912 29.1129 0.57267C29.9058 1.09294 29.4606 1.71577 29.0604 2.28107C28.6526 2.85888 28.2874 3.4692 27.8447 4.01699C26.4515 5.73539 25.4009 7.55135 25.8136 9.90009C25.9287 10.5629 25.606 11.0682 24.8756 11.0932C24.1828 11.1157 23.665 10.688 23.8026 10.0202C24.3804 7.18616 22.6845 5.23013 21.2787 3.14903C21.0936 2.87388 20.9211 2.58873 20.726 2.31859C20.2882 1.70577 19.9005 1.07043 20.766 0.522643C21.6289 -0.0201434 22.0417 0.642706 22.4494 1.24552C23.2348 2.41114 24.0227 3.58176 24.8681 4.83992Z" fill="#535B6C"/>
<path d="M85.5966 4.5217C86.5046 3.191 87.3275 2.00037 88.1355 0.797235C88.5532 0.176908 89.0659 -0.220802 89.7988 0.234438C90.6318 0.752211 90.2216 1.35003 89.8188 1.92283C89.3636 2.56817 88.9609 3.25853 88.4581 3.86385C87.0899 5.51723 86.1569 7.28816 86.5496 9.53685C86.6647 10.1947 86.377 10.715 85.6441 10.765C84.9538 10.81 84.421 10.4248 84.5561 9.72945C85.0989 6.95298 83.513 4.99445 82.0898 2.95587C81.8046 2.54566 81.542 2.12043 81.2643 1.70521C80.8841 1.13241 80.8766 0.602132 81.4895 0.196918C82.1223 -0.220802 82.6025 0.0768547 82.9677 0.614639C83.8332 1.88031 84.6786 3.15598 85.5966 4.5217Z" fill="#5B6376"/>
<path d="M43.4629 6.48091C43.4629 5.40034 43.4104 4.31476 43.4805 3.23919C43.533 2.43127 43.2203 2.22116 42.4799 2.28869C41.9021 2.34122 41.3168 2.3037 40.734 2.28619C40.1537 2.26868 39.7935 1.97353 39.7535 1.37571C39.716 0.777896 40.0561 0.355173 40.6114 0.347669C43.1478 0.307648 45.6866 0.310149 48.223 0.35017C48.7858 0.360175 49.1034 0.795405 49.0659 1.38822C49.0309 1.9135 48.7457 2.22866 48.2029 2.27369C48.0779 2.28369 47.9528 2.28869 47.8302 2.2962C45.504 2.42627 45.504 2.42627 45.504 4.73999C45.504 6.40337 45.489 8.06674 45.5115 9.73012C45.5215 10.4905 45.3314 11.1033 44.466 11.1083C43.5705 11.1134 43.4454 10.4605 43.4604 9.72012C43.4805 8.64455 43.4629 7.56148 43.4629 6.48091Z" fill="#535B6C"/>
</g>
<defs>
<clipPath id="clip0">
<rect width="90" height="11.3135" fill="white"/>
</clipPath>
</defs>
</svg>
