<svg xmlns:xlink="http://www.w3.org/1999/xlink" xmlns="http://www.w3.org/2000/svg" width="40" height="40" viewBox="0 0 40 40" fill="none">
<rect width="40" height="40" rx="20" fill="white"/>
<g clip-path="url(#clip0)">
<path d="M22.4589 17.6963V20.6912C21.6715 20.7307 20.848 20.7524 20.0001 20.7524C19.0788 20.7524 18.1872 20.7271 17.339 20.6799V18.2888H17.3384V17.7055C12.6328 17.932 9.14941 18.7456 9.14941 19.7149C9.14941 20.8598 14.0074 21.7872 20.0003 21.7872C25.9928 21.7872 30.8511 20.8598 30.8511 19.7149C30.8509 18.7313 27.2668 17.9089 22.4589 17.6963Z" fill="#1FA37D"/>
<path d="M20.0001 -0.00100708C8.95452 -0.00100708 0 8.95299 0 19.9989C0 31.0443 8.95452 39.9992 20.0001 39.9992C31.0457 39.9992 40 31.0443 40 19.9989C40 8.95299 31.0455 -0.00100708 20.0001 -0.00100708ZM22.4585 23.3945V32.2166H17.3383V23.3825C11.8571 23.0654 7.75687 21.7904 7.75687 20.2651C7.75687 18.74 11.8571 17.4653 17.3383 17.1476V14.6756H10.3677V9.55552H29.4298V14.6756H22.4585L22.4589 17.1358C28.0422 17.4329 32.2437 18.7214 32.2437 20.2651C32.2435 21.8091 28.0422 23.0978 22.4585 23.3945Z" fill="#1FA37D"/>
</g>
<defs>
<clipPath id="clip0">
<rect width="40" height="40" fill="white"/>
</clipPath>
</defs>
</svg>